<svg xmlns="http://www.w3.org/2000/svg" viewBox="0 0 119.55 105.53"><defs><style>.cls-1{fill:#4b54a0;}.cls-2{fill:#65c4d8;}</style></defs><g id="Capa_2" data-name="Capa 2"><g id="Capa_1-2" data-name="Capa 1"><path class="cls-1" d="M0,74.67V96.05a9.48,9.48,0,0,0,9.48,9.48H110.07a9.47,9.47,0,0,0,9.48-9.48V75.19Z"/><path class="cls-2" d="M59.62,0C51.1,0,37.23,6.47,37.23,24.6c0,20.66,22.39,38.48,22.39,38.48s22.71-15.3,22.71-40.37C82.33,5.52,68.14,0,59.62,0Zm.16,39.16A17.19,17.19,0,1,1,77,22,17.19,17.19,0,0,1,59.78,39.16Z"/><path class="cls-2" d="M119.55,71.07V38.87a9.48,9.48,0,0,0-9.48-9.49H9.48A9.49,9.49,0,0,0,0,38.87V71.33Z"/><path class="cls-1" d="M53.26,5.42l2.26,5.2h8.82l2-5.2S61.35,3.87,53.26,5.42Z"/><polygon class="cls-1" points="55.37 13.66 46.55 53.49 59.78 65.8 73.92 53.95 64.95 13.66 55.37 13.66"/></g></g></svg>