<?xml version="1.0" standalone="no"?>
<!DOCTYPE svg PUBLIC "-//W3C//DTD SVG 20010904//EN"
 "http://www.w3.org/TR/2001/REC-SVG-20010904/DTD/svg10.dtd">
<svg version="1.0" xmlns="http://www.w3.org/2000/svg"
 width="260.000000pt" height="260.000000pt" viewBox="0 0 260.000000 260.000000"
 preserveAspectRatio="xMidYMid meet">
<metadata>
Created by potrace 1.11, written by Peter Selinger 2001-2013
</metadata>
<g transform="translate(0.000000,260.000000) scale(0.100000,-0.100000)"
fill="#000000" stroke="none">
<path d="M1242 2033 c-36 -4 -42 -7 -37 -21 4 -9 12 -29 17 -44 10 -27 13 -28
78 -28 l68 0 16 41 c9 23 16 43 14 44 -7 6 -117 12 -156 8z"/>
<path d="M1235 1891 c-3 -6 -16 -56 -29 -113 -13 -57 -42 -184 -65 -282 -22
-98 -41 -187 -41 -197 0 -15 175 -188 198 -197 4 -1 56 39 115 89 88 74 106
94 102 112 -3 12 -17 74 -31 137 -14 63 -40 178 -59 255 -18 77 -36 155 -40
173 l-7 32 -68 0 c-38 0 -71 -4 -75 -9z"/>
<path d="M393 953 c-3 -7 -3 -91 -1 -186 3 -191 9 -209 71 -247 31 -19 57 -20
837 -20 780 0 806 1 837 20 63 38 68 55 71 252 3 143 1 179 -10 182 -7 3 -415
6 -906 9 -730 3 -895 1 -899 -10z"/>
</g>
</svg>
